<mxfile host="Electron" agent="Mozilla/5.0 (Windows NT 10.0; Win64; x64) AppleWebKit/537.36 (KHTML, like Gecko) draw.io/24.7.17 Chrome/128.0.6613.36 Electron/32.0.1 Safari/537.36" version="24.7.17">
  <diagram name="Pagina-1" id="zZlRXA6mFhE74y-IqpWw">
    <mxGraphModel dx="394" dy="228" grid="1" gridSize="10" guides="1" tooltips="1" connect="1" arrows="1" fold="1" page="1" pageScale="1" pageWidth="827" pageHeight="1169" math="0" shadow="0">
      <root>
        <mxCell id="0" />
        <mxCell id="1" parent="0" />
        <mxCell id="Mgk3iBupBqbGYtXMxwO9-10" style="edgeStyle=orthogonalEdgeStyle;rounded=0;orthogonalLoop=1;jettySize=auto;html=1;entryX=0;entryY=0.5;entryDx=0;entryDy=0;" edge="1" parent="1" source="Mgk3iBupBqbGYtXMxwO9-1" target="Mgk3iBupBqbGYtXMxwO9-2">
          <mxGeometry relative="1" as="geometry" />
        </mxCell>
        <mxCell id="Mgk3iBupBqbGYtXMxwO9-1" value="head_p" style="whiteSpace=wrap;html=1;aspect=fixed;fillColor=none;fontFamily=Courier New;fontSize=10;" vertex="1" parent="1">
          <mxGeometry x="400" y="400" width="40" height="40" as="geometry" />
        </mxCell>
        <mxCell id="Mgk3iBupBqbGYtXMxwO9-2" value="2" style="whiteSpace=wrap;html=1;aspect=fixed;fillColor=none;fontFamily=Courier New;fontSize=17;" vertex="1" parent="1">
          <mxGeometry x="480" y="400" width="40" height="40" as="geometry" />
        </mxCell>
        <mxCell id="Mgk3iBupBqbGYtXMxwO9-12" style="edgeStyle=orthogonalEdgeStyle;rounded=0;orthogonalLoop=1;jettySize=auto;html=1;entryX=0;entryY=0.5;entryDx=0;entryDy=0;" edge="1" parent="1" source="Mgk3iBupBqbGYtXMxwO9-3" target="Mgk3iBupBqbGYtXMxwO9-6">
          <mxGeometry relative="1" as="geometry" />
        </mxCell>
        <mxCell id="Mgk3iBupBqbGYtXMxwO9-3" value="" style="rounded=0;whiteSpace=wrap;html=1;fillColor=none;" vertex="1" parent="1">
          <mxGeometry x="520" y="400" width="20" height="40" as="geometry" />
        </mxCell>
        <mxCell id="Mgk3iBupBqbGYtXMxwO9-6" value="5" style="whiteSpace=wrap;html=1;aspect=fixed;fillColor=none;fontFamily=Courier New;fontSize=17;" vertex="1" parent="1">
          <mxGeometry x="580" y="400" width="40" height="40" as="geometry" />
        </mxCell>
        <mxCell id="Mgk3iBupBqbGYtXMxwO9-13" style="edgeStyle=orthogonalEdgeStyle;rounded=0;orthogonalLoop=1;jettySize=auto;html=1;entryX=0;entryY=0.5;entryDx=0;entryDy=0;" edge="1" parent="1" source="Mgk3iBupBqbGYtXMxwO9-7" target="Mgk3iBupBqbGYtXMxwO9-8">
          <mxGeometry relative="1" as="geometry" />
        </mxCell>
        <mxCell id="Mgk3iBupBqbGYtXMxwO9-7" value="" style="rounded=0;whiteSpace=wrap;html=1;fillColor=none;" vertex="1" parent="1">
          <mxGeometry x="620" y="400" width="20" height="40" as="geometry" />
        </mxCell>
        <mxCell id="Mgk3iBupBqbGYtXMxwO9-8" value="8" style="whiteSpace=wrap;html=1;aspect=fixed;fillColor=none;fontFamily=Courier New;fontSize=17;" vertex="1" parent="1">
          <mxGeometry x="680" y="400" width="40" height="40" as="geometry" />
        </mxCell>
        <mxCell id="Mgk3iBupBqbGYtXMxwO9-9" value="" style="rounded=0;whiteSpace=wrap;html=1;fillColor=none;" vertex="1" parent="1">
          <mxGeometry x="720" y="400" width="20" height="40" as="geometry" />
        </mxCell>
      </root>
    </mxGraphModel>
  </diagram>
</mxfile>
